HIERARCHY
ROOT joint_Root
{
	OFFSET 0.0 0.0 0.0
	CHANNELS 6 Xposition Yposition Zposition Zrotation Xrotation Yrotation 
	JOINT Hips
	{
		OFFSET -17.1583 93.1646 452.98
		CHANNELS 6 Xposition Yposition Zposition Zrotation Xrotation Yrotation 
		JOINT Spine
		{
			OFFSET 15.7357 0.0 0.0
			CHANNELS 6 Xposition Yposition Zposition Zrotation Xrotation Yrotation 
			JOINT Chest
			{
				OFFSET 8.98455 -0.406207 0.0
				CHANNELS 6 Xposition Yposition Zposition Zrotation Xrotation Yrotation 
				JOINT Neck
				{
					OFFSET 16.3773 0.0 0.0
					CHANNELS 6 Xposition Yposition Zposition Zrotation Xrotation Yrotation 
					JOINT Head
					{
						OFFSET 6.45672 0.0 0.0
						CHANNELS 6 Xposition Yposition Zposition Zrotation Xrotation Yrotation 
						End Site
						{
							OFFSET 0.0 0.0 0.0
						}
					}
				}
				JOINT Shoulder_L
				{
					OFFSET 12.9942 -0.242716 4.98039
					CHANNELS 6 Xposition Yposition Zposition Zrotation Xrotation Yrotation 
					JOINT UpperArm_L
					{
						OFFSET 5.34809 0.0 0.0
						CHANNELS 6 Xposition Yposition Zposition Zrotation Xrotation Yrotation 
						JOINT LowerArm_L
						{
							OFFSET 24.3286 1.87007e-05 0.0
							CHANNELS 6 Xposition Yposition Zposition Zrotation Xrotation Yrotation 
							JOINT Hand_L
							{
								OFFSET 22.2916 0.0 0.0
								CHANNELS 6 Xposition Yposition Zposition Zrotation Xrotation Yrotation 
								End Site
								{
									OFFSET 0.0 0.0 0.0
								}
							}
						}
					}
				}
				JOINT Shoulder_R
				{
					OFFSET 12.9945 -0.242716 -4.98039
					CHANNELS 6 Xposition Yposition Zposition Zrotation Xrotation Yrotation 
					JOINT UpperArm_R
					{
						OFFSET -5.34813 0.0 0.0
						CHANNELS 6 Xposition Yposition Zposition Zrotation Xrotation Yrotation 
						JOINT LowerArm_R
						{
							OFFSET -24.3289 0.000322201 0.0
							CHANNELS 6 Xposition Yposition Zposition Zrotation Xrotation Yrotation 
							JOINT Hand_R
							{
								OFFSET -22.2915 -0.000108084 0.0
								CHANNELS 6 Xposition Yposition Zposition Zrotation Xrotation Yrotation 
								End Site
								{
									OFFSET 0.0 0.0 0.0
								}
							}
						}
					}
				}
			}
		}
		JOINT UpperLeg_L
		{
			OFFSET -2.19248 -6.46944 0.0
			CHANNELS 6 Xposition Yposition Zposition Zrotation Xrotation Yrotation 
			JOINT LowerLeg_L
			{
				OFFSET 39.0811 0.0 -1.23785e-05
				CHANNELS 6 Xposition Yposition Zposition Zrotation Xrotation Yrotation 
				JOINT Foot_L
				{
					OFFSET 40.9854 0.0 -1.26872e-05
					CHANNELS 6 Xposition Yposition Zposition Zrotation Xrotation Yrotation 
					JOINT Toes_L
					{
						OFFSET 11.7543 0.0 0.0
						CHANNELS 6 Xposition Yposition Zposition Zrotation Xrotation Yrotation 
						End Site
						{
							OFFSET 0.0 0.0 0.0
						}
					}
				}
			}
		}
		JOINT UpperLeg_R
		{
			OFFSET -2.19251 6.46944 0.0
			CHANNELS 6 Xposition Yposition Zposition Zrotation Xrotation Yrotation 
			JOINT LowerLeg_R
			{
				OFFSET -39.0811 -0.00228153 -0.0401928
				CHANNELS 6 Xposition Yposition Zposition Zrotation Xrotation Yrotation 
				JOINT Foot_R
				{
					OFFSET -40.9854 0.0 0.0
					CHANNELS 6 Xposition Yposition Zposition Zrotation Xrotation Yrotation 
					JOINT Toes_R
					{
						OFFSET -11.7543 0.0 0.0
						CHANNELS 6 Xposition Yposition Zposition Zrotation Xrotation Yrotation 
						End Site
						{
							OFFSET 0.0 0.0 0.0
						}
					}
				}
			}
		}
	}
}
MOTION
Frames:	4
Frame Time:	0.0333333
0.000000 0.000000 0.000000 0.000000 0.000000 -0.000000 -3.509330 91.610700 -0.821587 82.432100 -0.495875 6.259700 15.735700 0.000005 -0.000001 64.316600 85.751100 -60.231100 8.984550 -0.406207 -0.000000 0.047969 -3.956770 8.170190 16.377300 -0.000001 -0.000001 12.961900 2.340940 6.449130 6.456720 -0.000001 -0.000000 0.148829 3.672990 13.140800 12.994200 -0.242716 4.980390 -91.729200 4.856010 -70.372400 5.348090 -0.000007 -0.000001 -75.707900 -13.642000 -1.648410 24.328600 0.000019 0.000005 41.504300 -41.274600 -126.705000 22.291600 -0.000001 0.000005 51.616900 4.927140 8.831790 12.994500 -0.242716 -4.980390 87.749400 5.892140 -69.051000 -5.348130 -0.000001 -0.000004 -67.837100 3.814510 -6.174990 -24.328900 0.000322 -0.000009 21.657800 -22.699600 -134.180000 -22.291500 -0.000108 -0.000004 63.025800 5.663440 -16.476000 -2.192480 -6.469440 -0.000000 -169.956000 4.075240 -2.897420 39.081100 -0.000007 -0.000012 0.467506 -0.785465 30.762300 40.985400 -0.000006 -0.000013 0.827888 8.808570 -78.084300 11.754300 -0.000000 0.000003 0.000427 0.160097 -10.083700 -2.192510 6.469440 -0.000001 -168.498000 6.787840 -175.819000 -39.081100 -0.002282 -0.040193 0.148630 -0.470095 17.176300 -40.985400 0.000008 0.000006 5.702330 1.344740 -71.042000 -11.754300 -0.000006 -0.000006 -0.010123 0.272224 -5.513390
0.000000 0.000000 0.000000 0.000000 0.000000 -0.000000 -3.478550 91.621900 -0.808029 82.450000 -0.443979 6.182960 15.735700 0.000005 -0.000001 64.133200 85.749700 -60.053000 8.984550 -0.406207 -0.000000 0.039454 -3.982490 8.159470 16.377300 -0.000001 -0.000001 12.937100 2.326820 6.468290 6.456720 -0.000001 -0.000000 0.168944 3.700150 12.979000 12.994200 -0.242716 4.980390 -91.739500 4.869120 -70.313100 5.348090 -0.000007 -0.000001 -75.643000 -13.888900 -1.585880 24.328600 0.000019 0.000005 41.685600 -41.370500 -126.582000 22.291600 -0.000001 0.000005 51.772200 4.918410 9.007840 12.994500 -0.242716 -4.980390 87.769000 5.838340 -69.044200 -5.348130 -0.000001 -0.000004 -67.954000 3.770000 -6.172350 -24.328900 0.000322 -0.000009 21.603800 -22.602400 -134.143000 -22.291500 -0.000108 -0.000004 63.056000 5.664300 -16.587300 -2.192480 -6.469440 -0.000000 -169.993000 4.105120 -2.941030 39.081100 -0.000007 -0.000012 0.466696 -0.786061 30.699600 40.985400 -0.000006 -0.000013 0.854831 8.830280 -78.088900 11.754300 -0.000000 0.000003 0.000307 0.162286 -9.994810 -2.192510 6.469440 -0.000001 -168.530000 6.778030 -175.855000 -39.081100 -0.002282 -0.040193 0.146958 -0.466527 17.112400 -40.985400 0.000008 0.000006 5.674650 1.332720 -71.060400 -11.754300 -0.000006 -0.000006 -0.009886 0.270453 -5.585850
0.000000 0.000000 0.000000 0.000000 0.000000 -0.000000 -3.429030 91.615300 -0.770154 82.474100 -0.414965 6.195230 15.735700 0.000005 -0.000001 64.288200 85.741800 -60.225600 8.984550 -0.406207 -0.000000 0.062415 -3.966610 8.124900 16.377300 -0.000001 -0.000001 13.012500 2.317250 6.455540 6.456720 -0.000001 -0.000000 0.133270 3.643150 12.944200 12.994200 -0.242716 4.980390 -91.725400 4.831580 -70.320700 5.348090 -0.000007 -0.000001 -75.614300 -14.053600 -1.490110 24.328600 0.000019 0.000005 41.637300 -41.335600 -126.610000 22.291600 -0.000001 0.000005 52.178600 4.906430 9.249260 12.994500 -0.242716 -4.980390 87.768300 5.834770 -69.026300 -5.348130 -0.000001 -0.000004 -68.027000 3.700750 -6.132120 -24.328900 0.000322 -0.000009 21.649700 -22.611000 -134.086000 -22.291500 -0.000108 -0.000004 63.208300 5.662490 -16.360500 -2.192480 -6.469440 -0.000000 -170.060000 4.133730 -2.918320 39.081100 -0.000007 -0.000012 0.465201 -0.783251 30.708900 40.985400 -0.000006 -0.000013 0.897269 8.817510 -78.061800 11.754300 -0.000000 0.000003 0.000408 0.160454 -10.069200 -2.192510 6.469440 -0.000001 -168.582000 6.726980 -175.870000 -39.081100 -0.002282 -0.040193 0.147770 -0.466844 17.192400 -40.985400 0.000008 0.000006 5.623350 1.253280 -71.043900 -11.754300 -0.000006 -0.000006 -0.009911 0.270636 -5.578350
0.000000 0.000000 0.000000 0.000000 0.000000 -0.000000 -3.378080 91.634100 -0.737695 82.506400 -0.374457 6.187990 15.735700 0.000005 -0.000001 64.457700 85.735200 -60.417500 8.984550 -0.406207 -0.000000 0.083624 -3.947340 8.080890 16.377300 -0.000001 -0.000001 13.030100 2.291300 6.454460 6.456720 -0.000001 -0.000000 0.124449 3.600640 12.981500 12.994200 -0.242716 4.980390 -91.736100 4.853950 -70.292800 5.348090 -0.000007 -0.000001 -75.582500 -14.210500 -1.532050 24.328600 0.000019 0.000005 41.750900 -41.363200 -126.515000 22.291600 -0.000001 0.000005 52.487500 4.898980 9.398100 12.994500 -0.242716 -4.980390 87.767300 5.827860 -68.994800 -5.348130 -0.000001 -0.000004 -68.099600 3.538420 -6.118310 -24.328900 0.000322 -0.000009 21.754100 -22.654600 -133.986000 -22.291500 -0.000108 -0.000004 63.242200 5.660650 -16.134200 -2.192480 -6.469440 -0.000000 -170.124000 4.102430 -2.849960 39.081100 -0.000007 -0.000012 0.461462 -0.780656 30.589500 40.985400 -0.000006 -0.000013 0.935997 8.827950 -78.036300 11.754300 -0.000000 0.000003 0.000543 0.157919 -10.172100 -2.192510 6.469440 -0.000001 -168.659000 6.766400 -175.785000 -39.081100 -0.002282 -0.040193 0.146098 -0.465098 17.065200 -40.985400 0.000008 0.000006 5.594290 1.310320 -71.072800 -11.754300 -0.000006 -0.000006 -0.009847 0.270155 -5.598020
